
<svg width="591px" height="214px" viewBox="0 0 591 214" version="1.1" xmlns="http://www.w3.org/2000/svg" xmlns:xlink="http://www.w3.org/1999/xlink">
    <g id="Page-2" stroke="none" stroke-width="1" fill="none" fill-rule="evenodd">
        <g id="Artboard-Copy-12" transform="translate(-665.000000, -366.000000)" fill="#FFFFFF" fill-rule="nonzero">
            <path d="M842.9,539 L817.1,539 L817.1,575 L769.4,575 L769.4,539 L665.6,539 L665.6,507.5 L721.1,371 L769.7,371 L721.7,496.7 L769.4,496.7 L769.4,440.6 L817.1,440.6 L817.1,496.7 L842.9,496.7 L842.9,539 Z M960.8,366.5 C1019.6,366.5 1055.3,411.2 1055.3,473 C1055.3,534.8 1019.6,579.5 960.8,579.5 C902,579.5 866,534.8 866,473 C866,411.2 902,366.5 960.8,366.5 Z M960.5,535.4 C990.8,535.4 1006.7,508.4 1006.7,473 C1006.7,437.6 990.8,410.6 960.5,410.6 C929.9,410.6 914,437.6 914,473 C914,508.4 929.9,535.4 960.5,535.4 Z M1255.1,539 L1229.3,539 L1229.3,575 L1181.6,575 L1181.6,539 L1077.8,539 L1077.8,507.5 L1133.3,371 L1181.9,371 L1133.9,496.7 L1181.6,496.7 L1181.6,440.6 L1229.3,440.6 L1229.3,496.7 L1255.1,496.7 L1255.1,539 Z" id="404"></path>
        </g>
    </g>
</svg>