
<svg width="339px" height="36px" viewBox="0 0 339 36" version="1.1" xmlns="http://www.w3.org/2000/svg" xmlns:xlink="http://www.w3.org/1999/xlink">
    <g id="Page-2" stroke="none" stroke-width="1" fill="none" fill-rule="evenodd">
        <g id="Artboard-Copy-12" transform="translate(-792.000000, -688.000000)" fill-rule="nonzero">
            <g id="Group-2" transform="translate(792.000000, 688.000000)">
                <g id="Group">
                    <path d="M15.2529297,13.6523438 L25.8447266,13.6523438 L25.8447266,14.4990234 C25.8447266,16.4248143 25.6178408,18.1292244 25.1640625,19.6123047 C24.721352,20.9847074 23.9742891,22.2685487 22.9228516,23.4638672 C20.5432824,26.142266 17.5162944,27.4814453 13.8417969,27.4814453 C10.2558414,27.4814453 7.1845831,26.1865364 4.62792969,23.5966797 C2.07127628,20.9957552 0.79296875,17.8746927 0.79296875,14.2333984 C0.79296875,10.5146298 2.09341147,7.36036451 4.69433594,4.77050781 C7.2952604,2.16958335 10.4605933,0.869140625 14.1904297,0.869140625 C16.1936949,0.869140625 18.0641189,1.27864174 19.8017578,2.09765625 C21.4619224,2.91667076 23.094393,4.24478248 24.6992188,6.08203125 L21.9433594,8.72167969 C19.8404843,5.92153548 17.2783354,4.52148438 14.2568359,4.52148438 C11.5452338,4.52148438 9.27084252,5.45669638 7.43359375,7.32714844 C5.59634498,9.16439721 4.67773438,11.4664575 4.67773438,14.2333984 C4.67773438,17.0888815 5.70148716,19.440746 7.74902344,21.2890625 C9.66374655,23.0045659 11.7389211,23.8623047 13.9746094,23.8623047 C15.8782647,23.8623047 17.5882086,23.220384 19.1044922,21.9365234 C20.6207758,20.6415951 21.467447,19.0921314 21.6445312,17.2880859 L15.2529297,17.2880859 L15.2529297,13.6523438 Z M28.6647789,18.7988281 C28.6647789,16.46353 29.5003825,14.4768962 31.1716148,12.8388672 C32.8428472,11.2008382 34.8792851,10.3818359 37.2809898,10.3818359 C39.6937623,10.3818359 41.7412679,11.206372 43.423568,12.8554688 C45.0837325,14.5045655 45.9138023,16.5299359 45.9138023,18.9316406 C45.9138023,21.3554809 45.0781987,23.386385 43.4069664,25.0244141 C41.7246663,26.6513753 39.6605594,27.4648438 37.2145836,27.4648438 C34.7907434,27.4648438 32.7598392,26.6347739 31.1218102,24.9746094 C29.4837811,23.3365804 28.6647789,21.2780072 28.6647789,18.7988281 Z M32.4831383,18.8652344 C32.4831383,20.4811279 32.9147746,21.7594354 33.7780602,22.7001953 C34.6634813,23.652023 35.8311128,24.1279297 37.2809898,24.1279297 C38.7419347,24.1279297 39.9095662,23.6575568 40.7839195,22.7167969 C41.6582729,21.776037 42.095443,20.5198646 42.095443,18.9482422 C42.095443,17.3766197 41.6582729,16.1204474 40.7839195,15.1796875 C39.8984984,14.2278598 38.7308669,13.7519531 37.2809898,13.7519531 C35.8532483,13.7519531 34.6966844,14.2278598 33.8112633,15.1796875 C32.9258422,16.1315152 32.4831383,17.3600185 32.4831383,18.8652344 Z M67.0099617,5.00292969 L67.0099617,27 L63.1417977,27 L63.1417977,5.00292969 L57.248243,5.00292969 L57.248243,1.3671875 L72.8869149,1.3671875 L72.8869149,5.00292969 L67.0099617,5.00292969 Z M72.7684907,18.7988281 C72.7684907,16.46353 73.6040943,14.4768962 75.2753266,12.8388672 C76.9465589,11.2008382 78.9829969,10.3818359 81.3847016,10.3818359 C83.7974741,10.3818359 85.8449796,11.206372 87.5272797,12.8554688 C89.1874443,14.5045655 90.0175141,16.5299359 90.0175141,18.9316406 C90.0175141,21.3554809 89.1819105,23.386385 87.5106782,25.0244141 C85.8283781,26.6513753 83.7642711,27.4648438 81.3182953,27.4648438 C78.8944551,27.4648438 76.8635509,26.6347739 75.2255219,24.9746094 C73.5874929,23.3365804 72.7684907,21.2780072 72.7684907,18.7988281 Z M76.58685,18.8652344 C76.58685,20.4811279 77.0184863,21.7594354 77.8817719,22.7001953 C78.767193,23.652023 79.9348245,24.1279297 81.3847016,24.1279297 C82.8456464,24.1279297 84.0132779,23.6575568 84.8876313,22.7167969 C85.7619846,21.776037 86.1991547,20.5198646 86.1991547,18.9482422 C86.1991547,17.3766197 85.7619846,16.1204474 84.8876313,15.1796875 C84.0022102,14.2278598 82.8345786,13.7519531 81.3847016,13.7519531 C79.9569601,13.7519531 78.8003961,14.2278598 77.914975,15.1796875 C77.0295539,16.1315152 76.58685,17.3600185 76.58685,18.8652344 Z M107.909572,11.3945312 L118.966213,11.3945312 L118.966213,1.3671875 L122.834377,1.3671875 L122.834377,27 L118.966213,27 L118.966213,15.0302734 L107.909572,15.0302734 L107.909572,27 L104.041408,27 L104.041408,1.3671875 L107.909572,1.3671875 L107.909572,11.3945312 Z M126.932749,18.7988281 C126.932749,16.46353 127.768353,14.4768962 129.439585,12.8388672 C131.110818,11.2008382 133.147255,10.3818359 135.54896,10.3818359 C137.961733,10.3818359 140.009238,11.206372 141.691538,12.8554688 C143.351703,14.5045655 144.181773,16.5299359 144.181773,18.9316406 C144.181773,21.3554809 143.346169,23.386385 141.674937,25.0244141 C139.992637,26.6513753 137.92853,27.4648438 135.482554,27.4648438 C133.058714,27.4648438 131.02781,26.6347739 129.389781,24.9746094 C127.751751,23.3365804 126.932749,21.2780072 126.932749,18.7988281 Z M130.751109,18.8652344 C130.751109,20.4811279 131.182745,21.7594354 132.046031,22.7001953 C132.931452,23.652023 134.099083,24.1279297 135.54896,24.1279297 C137.009905,24.1279297 138.177537,23.6575568 139.05189,22.7167969 C139.926243,21.776037 140.363413,20.5198646 140.363413,18.9482422 C140.363413,17.3766197 139.926243,16.1204474 139.05189,15.1796875 C138.166469,14.2278598 136.998837,13.7519531 135.54896,13.7519531 C134.121219,13.7519531 132.964655,14.2278598 132.079234,15.1796875 C131.193813,16.1315152 130.751109,17.3600185 130.751109,18.8652344 Z M147.566278,10.8300781 L151.30163,10.8300781 L151.30163,12.3242188 C152.021034,11.5716108 152.635286,11.0625013 153.144403,10.796875 C153.686724,10.5201809 154.367381,10.3818359 155.186395,10.3818359 C157.012576,10.3818359 158.456898,11.178703 159.519403,12.7724609 C160.692586,11.178703 162.280786,10.3818359 164.284052,10.3818359 C167.925346,10.3818359 169.745966,12.5898217 169.745966,17.0058594 L169.745966,27 L165.994013,27 L165.994013,18.0185547 C165.994013,16.4690678 165.805863,15.3733756 165.429559,14.7314453 C165.042188,14.0784473 164.405801,13.7519531 163.52038,13.7519531 C162.491078,13.7519531 161.741248,14.139319 161.270868,14.9140625 C160.800488,15.688806 160.565302,16.9339107 160.565302,18.6494141 L160.565302,27 L156.813348,27 L156.813348,18.0683594 C156.813348,15.1907408 155.983279,13.7519531 154.323114,13.7519531 C153.271677,13.7519531 152.505245,14.1448528 152.023798,14.9306641 C151.54235,15.7164753 151.30163,16.9560462 151.30163,18.6494141 L151.30163,27 L147.566278,27 L147.566278,10.8300781 Z M188.619729,19.7949219 L177.031838,19.7949219 C177.131448,21.1230535 177.563085,22.1800091 178.32676,22.9658203 C179.090436,23.7405638 180.069918,24.1279297 181.265237,24.1279297 C182.194929,24.1279297 182.964127,23.9065777 183.572854,23.4638672 C184.170513,23.0211566 184.85117,22.2021544 185.614846,21.0068359 L188.769143,22.7666016 C188.282161,23.5966838 187.767518,24.307777 187.225198,24.8999023 C186.682877,25.4920277 186.101828,25.979002 185.482034,26.3608398 C184.862239,26.7426777 184.192649,27.0221345 183.473245,27.1992188 C182.75384,27.376303 181.973574,27.4648438 181.132424,27.4648438 C178.719652,27.4648438 176.782822,26.6901119 175.321877,25.140625 C173.860933,23.5800703 173.130471,21.5104296 173.130471,18.9316406 C173.130471,16.3749872 173.838797,14.3053465 175.255471,12.7226562 C176.683213,11.1621016 178.575772,10.3818359 180.933206,10.3818359 C183.312775,10.3818359 185.194266,11.1399664 186.577737,12.65625 C187.950139,14.1614659 188.636331,16.247708 188.636331,18.9150391 L188.619729,19.7949219 Z M184.784768,16.7402344 C184.264583,14.7480369 183.008411,13.7519531 181.016213,13.7519531 C180.562435,13.7519531 180.136333,13.8211256 179.737893,13.9594727 C179.339454,14.0978197 178.97699,14.2970365 178.650491,14.5571289 C178.323992,14.8172214 178.044535,15.129881 177.812112,15.4951172 C177.579689,15.8603534 177.402607,16.2753883 177.280862,16.7402344 L184.784768,16.7402344 Z M195.872399,35.7988281 L192.137047,35.7988281 L192.137047,10.8300781 L195.872399,10.8300781 L195.872399,12.5898438 C197.344411,11.1178312 199.015618,10.3818359 200.88607,10.3818359 C203.110691,10.3818359 204.942378,11.2008382 206.381188,12.8388672 C207.842132,14.4658284 208.572594,16.5188678 208.572594,18.9980469 C208.572594,21.4218871 207.847666,23.4417237 206.397789,25.0576172 C204.95898,26.6624429 203.143894,27.4648438 200.952477,27.4648438 C199.059889,27.4648438 197.366547,26.7067133 195.872399,25.1904297 L195.872399,35.7988281 Z M204.754234,19.0146484 C204.754234,17.4651615 204.333666,16.2034554 203.492516,15.2294922 C202.640298,14.2444612 201.566741,13.7519531 200.271813,13.7519531 C198.89941,13.7519531 197.787116,14.2278598 196.934899,15.1796875 C196.082681,16.1315152 195.656578,17.3821537 195.656578,18.9316406 C195.656578,20.4479242 196.082681,21.6985628 196.934899,22.6835938 C197.776049,23.6464892 198.882808,24.1279297 200.255211,24.1279297 C201.550139,24.1279297 202.618163,23.6409554 203.459313,22.6669922 C204.322598,21.693029 204.754234,20.4755932 204.754234,19.0146484 Z M223.877021,10.8300781 L227.628974,10.8300781 L227.628974,27 L223.877021,27 L223.877021,25.3066406 C222.338602,26.7454499 220.683996,27.4648438 218.913154,27.4648438 C216.677466,27.4648438 214.829177,26.6569091 213.368232,25.0410156 C211.918355,23.3919188 211.193427,21.3333457 211.193427,18.8652344 C211.193427,16.4413941 211.918355,14.4215576 213.368232,12.8056641 C214.818109,11.1897706 216.633195,10.3818359 218.813545,10.3818359 C220.695064,10.3818359 222.382873,11.1565678 223.877021,12.7060547 L223.877021,10.8300781 Z M215.011787,18.8652344 C215.011787,20.4147213 215.426822,21.6764274 216.256904,22.6503906 C217.109122,23.6354216 218.182679,24.1279297 219.477607,24.1279297 C220.861078,24.1279297 221.978905,23.652023 222.831123,22.7001953 C223.683341,21.7151643 224.109443,20.4645258 224.109443,18.9482422 C224.109443,17.4319586 223.683341,16.18132 222.831123,15.1962891 C221.978905,14.2333936 220.872145,13.7519531 219.51081,13.7519531 C218.22695,13.7519531 217.153393,14.2389274 216.290107,15.2128906 C215.437889,16.1979216 215.011787,17.4153573 215.011787,18.8652344 Z M247.415824,26.6181641 C247.415824,27.3818398 247.390921,28.0541963 247.341116,28.6352539 C247.291312,29.2163115 247.222139,29.7281879 247.133597,30.1708984 C246.867971,31.3883524 246.347794,32.4342404 245.57305,33.3085938 C244.112105,34.9908938 242.103336,35.8320312 239.546683,35.8320312 C237.388469,35.8320312 235.61212,35.2509824 234.217581,34.0888672 C232.778772,32.8935487 231.948702,31.2389429 231.727347,29.125 L235.4793,29.125 C235.623181,29.921879 235.861134,30.5361307 236.193167,30.9677734 C236.967911,31.9749399 238.096806,32.4785156 239.579886,32.4785156 C242.313624,32.4785156 243.680472,30.8017746 243.680472,27.4482422 L243.680472,25.1904297 C242.197392,26.7067133 240.487448,27.4648438 238.550589,27.4648438 C236.348104,27.4648438 234.544086,26.6679767 233.13848,25.0742188 C231.721806,23.4583253 231.01348,21.4384887 231.01348,19.0146484 C231.01348,16.6572148 231.672002,14.6539796 232.989066,13.0048828 C234.405739,11.2561762 236.276163,10.3818359 238.600394,10.3818359 C240.636862,10.3818359 242.330205,11.1399664 243.680472,12.65625 L243.680472,10.8300781 L247.415824,10.8300781 L247.415824,26.6181641 Z M243.829886,18.9482422 C243.829886,17.3766197 243.409317,16.1204474 242.568167,15.1796875 C241.715949,14.2167921 240.625791,13.7353516 239.297659,13.7353516 C237.880986,13.7353516 236.763158,14.2610625 235.944144,15.3125 C235.202604,16.2532599 234.831839,17.4706957 234.831839,18.9648438 C234.831839,20.4368563 235.202604,21.6432245 235.944144,22.5839844 C236.752091,23.6132864 237.869918,24.1279297 239.297659,24.1279297 C240.725401,24.1279297 241.854296,23.6077526 242.684378,22.5673828 C243.448054,21.6266229 243.829886,20.4202548 243.829886,18.9482422 Z M266.289587,19.7949219 L254.701696,19.7949219 C254.801306,21.1230535 255.232942,22.1800091 255.996618,22.9658203 C256.760294,23.7405638 257.739776,24.1279297 258.935095,24.1279297 C259.864787,24.1279297 260.633985,23.9065777 261.242712,23.4638672 C261.840371,23.0211566 262.521028,22.2021544 263.284704,21.0068359 L266.439001,22.7666016 C265.952019,23.5966838 265.437376,24.307777 264.895056,24.8999023 C264.352735,25.4920277 263.771686,25.979002 263.151891,26.3608398 C262.532097,26.7426777 261.862507,27.0221345 261.143102,27.1992188 C260.423698,27.376303 259.643432,27.4648438 258.802282,27.4648438 C256.38951,27.4648438 254.45268,26.6901119 252.991735,25.140625 C251.53079,23.5800703 250.800329,21.5104296 250.800329,18.9316406 C250.800329,16.3749872 251.508655,14.3053465 252.925329,12.7226562 C254.353071,11.1621016 256.24563,10.3818359 258.603063,10.3818359 C260.982633,10.3818359 262.864124,11.1399664 264.247595,12.65625 C265.619997,14.1614659 266.306188,16.247708 266.306188,18.9150391 L266.289587,19.7949219 Z M262.454626,16.7402344 C261.934441,14.7480369 260.678269,13.7519531 258.686071,13.7519531 C258.232293,13.7519531 257.80619,13.8211256 257.407751,13.9594727 C257.009311,14.0978197 256.646848,14.2970365 256.320349,14.5571289 C255.993849,14.8172214 255.714393,15.129881 255.48197,15.4951172 C255.249547,15.8603534 255.072465,16.2753883 254.95072,16.7402344 L262.454626,16.7402344 Z" id="GoToHomepage" fill="#A6A6A6"></path>
                    <path id="Line-2" d="M336.091247,19 L329.754869,15.4357878 L329.319082,15.1906571 L329.809343,14.3190816 L330.245131,14.5642122 L338.245131,19.0642122 L339.019864,19.5 L338.245131,19.9357878 L330.245131,24.4357878 L329.809343,24.6809184 L329.319082,23.8093429 L329.754869,23.5642122 L336.091247,20 L330,20 L291.5,20 L291,20 L291,19 L291.5,19 L330,19 L336.091247,19 Z" fill="#979797"></path>
                </g>
            </g>
        </g>
    </g>
</svg>