<svg width="101px" height="19px" viewBox="0 0 101 19" version="1.1" xmlns="http://www.w3.org/2000/svg" xmlns:xlink="http://www.w3.org/1999/xlink">
    <g id="Page-1" stroke="none" stroke-width="1" fill="none" fill-rule="evenodd">
        <g id="home_logX" transform="translate(-1286.000000, -557.000000)" fill="#FFFFFF">
            <g id="Padding-Group-6" transform="translate(1265.000000, 544.000000)">
                <path d="M31.3652344,16.8847656 L29.3349609,18.0878906 C28.9554017,17.4290332 28.5937517,16.99935 28.25,16.7988281 C27.8919253,16.5696603 27.4300158,16.4550781 26.8642578,16.4550781 C26.1695929,16.4550781 25.5931013,16.6520163 25.1347656,17.0458984 C24.67643,17.4326191 24.4472656,17.9195934 24.4472656,18.5068359 C24.4472656,19.3160848 25.0488221,19.967771 26.2519531,20.4619141 L27.90625,21.1386719 C29.2526109,21.6829454 30.2373016,22.347164 30.8603516,23.1313477 C31.4834016,23.9155313 31.7949219,24.8769474 31.7949219,26.015625 C31.7949219,27.5410233 31.2864634,28.8014273 30.2695312,29.796875 C29.2454376,30.7994842 27.9742914,31.3007812 26.4560547,31.3007812 C25.0165944,31.3007812 23.8278042,30.8746787 22.8896484,30.0224609 C21.9658157,29.1702431 21.3893241,27.9707109 21.1601562,26.4238281 L23.6953125,25.8652344 C23.8098964,26.8391976 24.0104152,27.5123679 24.296875,27.8847656 C24.8125026,28.600915 25.5644482,28.9589844 26.5527344,28.9589844 C27.3333372,28.9589844 27.9814427,28.6975938 28.4970703,28.1748047 C29.0126979,27.6520156 29.2705078,26.9895873 29.2705078,26.1875 C29.2705078,25.8652328 29.2257491,25.5698256 29.1362305,25.3012695 C29.0467118,25.0327135 28.9070648,24.7856457 28.7172852,24.5600586 C28.5275056,24.3344715 28.2822281,24.1232106 27.9814453,23.9262695 C27.6806626,23.7293284 27.3225932,23.541342 26.9072266,23.3623047 L25.3066406,22.6962891 C23.036447,21.7366488 21.9013672,20.3330171 21.9013672,18.4853516 C21.9013672,17.2392516 22.3775994,16.1972698 23.3300781,15.359375 C24.2825568,14.5143187 25.4677663,14.0917969 26.8857422,14.0917969 C28.7978611,14.0917969 30.2910103,15.0227771 31.3652344,16.8847656 Z M37.3164062,20.9023438 L44.4707031,20.9023438 L44.4707031,14.4140625 L46.9736328,14.4140625 L46.9736328,31 L44.4707031,31 L44.4707031,23.2548828 L37.3164062,23.2548828 L37.3164062,31 L34.8134766,31 L34.8134766,14.4140625 L37.3164062,14.4140625 L37.3164062,20.9023438 Z M50.1210938,22.6318359 C50.1210938,20.2971888 50.9768795,18.2920006 52.6884766,16.6162109 C54.3929122,14.9404213 56.4410688,14.1025391 58.8330078,14.1025391 C61.1963009,14.1025391 63.2229733,14.9475827 64.9130859,16.6376953 C66.61036,18.3278079 67.4589844,20.3580611 67.4589844,22.7285156 C67.4589844,25.1132932 66.6067794,27.1363849 64.9023438,28.7978516 C63.1907467,30.4664797 61.1246866,31.3007812 58.7041016,31.3007812 C56.5628148,31.3007812 54.6399825,30.5595777 52.9355469,29.0771484 C51.0592354,27.4371663 50.1210938,25.2887503 50.1210938,22.6318359 Z M52.6455078,22.6640625 C52.6455078,24.497405 53.2613871,26.0048769 54.4931641,27.1865234 C55.7177796,28.36817 57.1321534,28.9589844 58.7363281,28.9589844 C60.4765712,28.9589844 61.9446555,28.3574279 63.140625,27.1542969 C64.3365945,25.9368429 64.9345703,24.4544358 64.9345703,22.7070312 C64.9345703,20.9381422 64.3437559,19.4557351 63.1621094,18.2597656 C61.9876243,17.0566346 60.5338628,16.4550781 58.8007812,16.4550781 C57.0748612,16.4550781 55.617519,17.0566346 54.4287109,18.2597656 C53.2399029,19.4485737 52.6455078,20.9166579 52.6455078,22.6640625 Z M76.2246094,23.9316406 L81.359375,31 L78.2978516,31 L73.5605469,24.2109375 L73.109375,24.2109375 L73.109375,31 L70.6064453,31 L70.6064453,14.4140625 L73.5390625,14.4140625 C75.7304797,14.4140625 77.3131462,14.8258422 78.2871094,15.6494141 C79.3613335,16.5660853 79.8984375,17.7763597 79.8984375,19.2802734 C79.8984375,20.4547585 79.5618523,21.464514 78.8886719,22.3095703 C78.2154914,23.1546266 77.3274795,23.6953113 76.2246094,23.9316406 Z M73.109375,22.0302734 L73.9042969,22.0302734 C76.2747514,22.0302734 77.4599609,21.124358 77.4599609,19.3125 C77.4599609,17.6152259 76.3069777,16.7666016 74.0009766,16.7666016 L73.109375,16.7666016 L73.109375,22.0302734 Z M88.4277344,16.7666016 L88.4277344,31 L85.9248047,31 L85.9248047,16.7666016 L82.1113281,16.7666016 L82.1113281,14.4140625 L92.2304688,14.4140625 L92.2304688,16.7666016 L88.4277344,16.7666016 Z M103.617188,16.7666016 L96.9677734,16.7666016 L96.9677734,20.7519531 L103.423828,20.7519531 L103.423828,23.1044922 L96.9677734,23.1044922 L96.9677734,28.6474609 L103.617188,28.6474609 L103.617188,31 L94.4648438,31 L94.4648438,14.4140625 L103.617188,14.4140625 L103.617188,16.7666016 Z M106.904297,31 L106.904297,13.2861328 L119,25.9404297 L119,14.4140625 L121.50293,14.4140625 L121.50293,32.0097656 L109.407227,19.3876953 L109.407227,31 L106.904297,31 Z" id="SHORTEN"></path>
            </g>
        </g>
    </g>
</svg>
